<?xml version="1.0" encoding="utf-8"?>
<!-- Generator: Adobe Illustrator 19.2.1, SVG Export Plug-In . SVG Version: 6.00 Build 0)  -->
<svg version="1.1" id="Layer_1" xmlns="http://www.w3.org/2000/svg" xmlns:xlink="http://www.w3.org/1999/xlink" x="0px" y="0px"
	 viewBox="0 0 80 80" style="enable-background:new 0 0 80 80;" xml:space="preserve">
<style type="text/css">
	.st0{fill:#1A7EA7;}
	.st1{fill:#23A8DF;}
</style>
<title>hands</title>
<path class="st0" d="M36,68.1c0,0,23.1,19.4,37.5-7.2s-12.4-27.5-12.8-47c-0.1-6.9-9.5-6.9-6.4,6.7c0,0,2.4,8.1,5.2,10.6
	S33.4,12.1,25,7.4c-7.6-4.2-9.1,3-6.9,4.8c6.3,5.2,28.1,18.7,26.9,20.1C44,34,17.9,16.1,14,13.5c-6.8-4.5-12.7,1.6-5.7,6.7
	C17.7,27,39,40.9,38.5,42S23,32.8,8,24.4c-4.7-2.6-11.3,1.4-3.3,7.3c9.1,6.6,28.8,18,27.6,19.8C31.4,53,11.3,39.9,6.5,37.5
	c-2.1-1-8.8,2.8,1,10S36,68.1,36,68.1z"/>
<path class="st1" d="M37.3,67.1c0,0,23.1,19.4,37.5-7.2S62.4,32.4,62,12.9c-0.1-6.9-9.5-6.9-6.4,6.7c0,0,2.4,8.1,5.2,10.6
	S34.7,11.1,26.2,6.4c-7.6-4.2-9.1,3-6.9,4.8c6.3,5.2,28.1,18.7,26.9,20.1c-1,1.8-27.1-16.2-30.9-18.8c-6.8-4.5-12.7,1.6-5.7,6.7
	C19,26,40.2,39.9,39.8,41S24.2,31.8,9.3,23.4C4.6,20.8-2,24.8,6,30.7c9.1,6.6,28.8,18,27.6,19.8c-1,1.6-21.1-11.6-25.9-13.9
	c-2.1-1-8.8,2.8,1,10S37.3,67.1,37.3,67.1z"/>
</svg>
