<?xml version="1.0" encoding="utf-8"?>
<!-- Generator: Adobe Illustrator 19.2.1, SVG Export Plug-In . SVG Version: 6.00 Build 0)  -->
<svg version="1.1" id="Layer_1" xmlns="http://www.w3.org/2000/svg" xmlns:xlink="http://www.w3.org/1999/xlink" x="0px" y="0px"
	 viewBox="0 0 80 80" style="enable-background:new 0 0 80 80;" xml:space="preserve">
<style type="text/css">
	.st0{fill:#1C147F;}
</style>
<title>hands</title>
<path class="st0" d="M41.3,70.2c0,0,25.8,15.6,36-12.9S60.9,32,57.5,12.8C56.4,6,47,7.4,52.2,20.4c0,0,3.7,7.7,6.8,9.7
	S30.3,15.2,21.2,11.8c-8.1-3-8.5,4.3-6.1,5.8c7,4.2,30.6,14.2,29.6,15.7C44,35.2,15.5,21.5,11.3,19.5C3.9,16-1,23.1,6.7,27
	C17,32.3,40.1,42.8,39.8,44S23.1,37.2,7,31.2c-5-1.9-11,3.1-2.1,7.7c10,5.2,31.2,13.4,30.3,15.3c-0.7,1.7-22.6-8.2-27.6-9.8
	c-2.2-0.7-8.3,4.1,2.5,9.7S41.3,70.2,41.3,70.2z"/>
</svg>
