<?xml version="1.0" encoding="utf-8"?>
<!-- Generator: Adobe Illustrator 19.2.1, SVG Export Plug-In . SVG Version: 6.00 Build 0)  -->
<svg version="1.1" id="Layer_1" xmlns="http://www.w3.org/2000/svg" xmlns:xlink="http://www.w3.org/1999/xlink" x="0px" y="0px"
	 viewBox="0 0 25.7 25.7" style="enable-background:new 0 0 25.7 25.7;" xml:space="preserve">
<style type="text/css">
	.st0{fill:#0CCB82;}
</style>
<g>
	<g>
		<path class="st0" d="M19.7,9.6c-1.4-1.2-2.8-2.3-4.4-3.2c-0.8-0.5-1.9,0.1-1.9,1.1c0.1,2.9,0.8,5.5,2.1,8.1
			c0.5-0.6,0.9-1.2,1.4-1.8c-4-1.2-6-6.1-9.4-8.2C6.7,5,5.4,5.9,5.8,6.9c1.4,4.4,4,8.2,5.5,12.4c0.5-0.5,1-1,1.5-1.5
			c-2.2-0.5-3.3-2.6-5.6-3c-1.1-0.2-1.9,0.8-1.4,1.8c0.7,1.4,1,2.7,1.3,4.2c0.3,1.6,2.7,0.9,2.4-0.7c-0.3-1.7-0.8-3.2-1.5-4.8
			c-0.5,0.7-1,1.3-1.5,1.9c2.2,0.4,3.4,2.6,5.6,3c0.9,0.2,1.9-0.6,1.5-1.5c-1.5-4.3-4.1-8.1-5.5-12.4C7.6,6.7,7,7.2,6.3,7.7
			c3.7,2.3,5.6,7.1,10,8.5c1.1,0.3,1.9-0.9,1.4-1.8c-1.1-2.2-1.7-4.4-1.8-6.9c-0.6,0.4-1.3,0.7-1.9,1.1c1.4,0.8,2.6,1.7,3.8,2.8
			C19.1,12.4,20.9,10.6,19.7,9.6L19.7,9.6z"/>
	</g>
</g>
</svg>
