<?xml version="1.0" encoding="utf-8"?>
<!-- Generator: Adobe Illustrator 19.2.1, SVG Export Plug-In . SVG Version: 6.00 Build 0)  -->
<svg version="1.1" id="Layer_1" xmlns="http://www.w3.org/2000/svg" xmlns:xlink="http://www.w3.org/1999/xlink" x="0px" y="0px"
	 viewBox="0 0 25.7 25.7" style="enable-background:new 0 0 25.7 25.7;" xml:space="preserve">
<style type="text/css">
	.st0{fill:#F2E02C;}
</style>
<g>
	<g>
		<path class="st0" d="M21.1,14.7c-1.9,1.2-3.8,2.2-5.9,3.1c0.5,0.4,1.1,0.8,1.6,1.2c0.2-2.7,1.4-5,3-7.1c0.7-0.9-0.4-2.1-1.4-1.8
			c-5.9,1.3-9.6,6.6-15,8.9c0.6,0.6,1.1,1.1,1.7,1.7c2.3-4.7,6-8.4,8.5-13c0.6-1-0.4-2-1.4-1.8C9.1,6.4,6.8,8.7,3.7,9.1
			c0.5,0.6,0.9,1.2,1.4,1.8C6.2,9.4,7,7.8,7.4,6c0.4-1.6-2-2.2-2.4-0.7C4.6,7,3.9,8.3,2.9,9.7c-0.7,1,0.5,2,1.4,1.8
			c3.1-0.4,5.4-2.8,8.5-3.3c-0.5-0.6-0.9-1.2-1.4-1.8c-2.5,4.6-6.3,8.3-8.5,13c-0.6,1.2,0.6,2.2,1.7,1.7c5.2-2.3,8.8-7.4,14.4-8.7
			c-0.5-0.6-0.9-1.2-1.4-1.8c-1.9,2.5-3.1,5.2-3.3,8.4c-0.1,0.7,0.9,1.5,1.6,1.2c2.3-1,4.4-2,6.5-3.3C23.7,16,22.5,13.8,21.1,14.7
			L21.1,14.7z"/>
	</g>
</g>
<g>
</g>
<g>
</g>
<g>
</g>
<g>
</g>
<g>
</g>
<g>
</g>
</svg>
