<?xml version="1.0" encoding="utf-8"?>
<!-- Generator: Adobe Illustrator 19.2.1, SVG Export Plug-In . SVG Version: 6.00 Build 0)  -->
<svg version="1.1" id="Layer_1" xmlns="http://www.w3.org/2000/svg" xmlns:xlink="http://www.w3.org/1999/xlink" x="0px" y="0px"
	 viewBox="0 0 25.7 25.7" style="enable-background:new 0 0 25.7 25.7;" xml:space="preserve">
<style type="text/css">
	.st0{fill:#23A8DF;}
</style>
<g>
	<g>
		<path class="st0" d="M12.2,12.8c-1.2,1.4,0.3,3.9,2.2,3.3c2.2-0.7,2.2-4.7,0.3-5.8c-2.3-1.3-4.5,1-5,3.1C9.2,15.6,9.9,18,12,19.2
			c5.1,2.8,8.9-3.7,6.8-8.1c-1.6-3.6-8-7.6-10.8-3.2C7,9.6,4,19.7,8.1,19.6c1.6,0,1.6-2.5,0-2.5c1,0,0.5,0.7,0.6-0.3
			c0-0.5,0-1,0-1.5c0-1.2,0.2-2.5,0.6-3.7c0.2-0.9,0.6-2.6,1.4-3.1c0.9-0.5,2.4,0.3,3.2,0.7c1.4,0.8,2.7,2,3.1,3.6
			c0.4,1.5-0.1,3.8-1.9,4.2c-1.1,0.5-2.3,0-2.8-1c-0.3-0.7-0.3-1.7,0-2.5c0.1-0.3,0.4-0.9,0.8-1c0.5-0.1,1,2.1,0.9,2.1
			C15.1,13.4,13.3,11.6,12.2,12.8L12.2,12.8z"/>
	</g>
</g>
</svg>
