<svg xmlns="http://www.w3.org/2000/svg" width="302.516" height="297.159" viewBox="0 0 302.516 297.159">
  <g id="hands-07" transform="translate(302.516 81.543) rotate(110)">
    <g id="Group_168" data-name="Group 168" transform="translate(0 0)">
      <path id="Path_237" data-name="Path 237" d="M112.228,123.074c-20.568,24,5.142,66.844,37.707,56.56,37.707-12,37.707-80.555,5.142-99.408-39.421-22.281-77.128,17.139-85.7,53.132-8.57,37.707,3.428,78.841,39.421,99.408,87.412,47.99,152.543-63.416,116.549-138.829C197.926,32.236,88.233-36.322,40.242,39.091,23.1,68.228-28.317,241.336,41.956,239.622c27.423,0,27.423-42.848,0-42.848,17.14,0,8.57,12,10.284-5.142V165.923a204.528,204.528,0,0,1,10.284-63.416c3.428-15.425,10.284-44.562,24-53.132,15.426-8.57,41.135,5.142,54.847,12,24,13.712,46.277,34.279,53.133,61.7,6.856,25.709-1.714,65.13-32.565,71.985-18.854,8.57-39.421,0-47.991-17.139-5.142-12-5.142-29.137,0-42.848,1.714-5.142,6.856-15.425,13.712-17.139,8.57-1.714,17.14,35.993,15.426,35.993,18.854-20.567-12-51.418-30.851-30.851Z" transform="translate(-6.002 -5.967)" fill="#f5eb16"/>
    </g>
  </g>
</svg>
